<mxfile host="app.diagrams.net" modified="2023-10-09T19:57:53.399Z" agent="Mozilla/5.0 (Windows NT 10.0; Win64; x64) AppleWebKit/537.36 (KHTML, like Gecko) Chrome/117.0.0.0 Safari/537.36 Edg/117.0.2045.60" etag="bzOHAvbjYNnTbslh-3O-" version="22.0.4" type="google">
  <diagram name="PÃ¡gina-1" id="nMjUwfcMZsWqJaZEK7a1">
    <mxGraphModel grid="1" page="1" gridSize="10" guides="1" tooltips="1" connect="1" arrows="1" fold="1" pageScale="1" pageWidth="827" pageHeight="1169" math="0" shadow="0">
      <root>
        <mxCell id="0" />
        <mxCell id="1" parent="0" />
        <mxCell id="pYMBZBInxaOQRp_aP_Sl-1" value="pessoas" style="whiteSpace=wrap;html=1;align=center;" vertex="1" parent="1">
          <mxGeometry x="350" y="190" width="100" height="40" as="geometry" />
        </mxCell>
        <mxCell id="pYMBZBInxaOQRp_aP_Sl-2" value="id" style="ellipse;whiteSpace=wrap;html=1;align=center;fontStyle=4;" vertex="1" parent="1">
          <mxGeometry x="350" y="100" width="100" height="40" as="geometry" />
        </mxCell>
        <mxCell id="pYMBZBInxaOQRp_aP_Sl-3" value="nome" style="ellipse;whiteSpace=wrap;html=1;align=center;" vertex="1" parent="1">
          <mxGeometry x="490" y="120" width="100" height="40" as="geometry" />
        </mxCell>
        <mxCell id="pYMBZBInxaOQRp_aP_Sl-4" value="funcao" style="ellipse;whiteSpace=wrap;html=1;align=center;direction=east;" vertex="1" parent="1">
          <mxGeometry x="160" y="90" width="100" height="40" as="geometry" />
        </mxCell>
        <mxCell id="pYMBZBInxaOQRp_aP_Sl-5" value="qualificacao" style="ellipse;whiteSpace=wrap;html=1;align=center;" vertex="1" parent="1">
          <mxGeometry x="504" y="160" width="100" height="40" as="geometry" />
        </mxCell>
        <mxCell id="pYMBZBInxaOQRp_aP_Sl-6" value="morada" style="ellipse;whiteSpace=wrap;html=1;align=center;" vertex="1" parent="1">
          <mxGeometry x="504" y="200" width="100" height="40" as="geometry" />
        </mxCell>
        <mxCell id="pYMBZBInxaOQRp_aP_Sl-7" value="empresa/pessoa" style="ellipse;whiteSpace=wrap;html=1;align=center;" vertex="1" parent="1">
          <mxGeometry x="490" y="260" width="100" height="40" as="geometry" />
        </mxCell>
        <mxCell id="pYMBZBInxaOQRp_aP_Sl-8" value="" style="endArrow=none;html=1;rounded=0;entryX=0;entryY=0.5;entryDx=0;entryDy=0;exitX=1;exitY=0.25;exitDx=0;exitDy=0;" edge="1" parent="1" source="pYMBZBInxaOQRp_aP_Sl-1" target="pYMBZBInxaOQRp_aP_Sl-5">
          <mxGeometry width="50" height="50" relative="1" as="geometry">
            <mxPoint x="320" y="270" as="sourcePoint" />
            <mxPoint x="370" y="220" as="targetPoint" />
          </mxGeometry>
        </mxCell>
        <mxCell id="pYMBZBInxaOQRp_aP_Sl-9" value="" style="endArrow=none;html=1;rounded=0;entryX=0;entryY=1;entryDx=0;entryDy=0;exitX=0.849;exitY=0.014;exitDx=0;exitDy=0;exitPerimeter=0;" edge="1" parent="1" source="pYMBZBInxaOQRp_aP_Sl-1" target="pYMBZBInxaOQRp_aP_Sl-3">
          <mxGeometry width="50" height="50" relative="1" as="geometry">
            <mxPoint x="320" y="270" as="sourcePoint" />
            <mxPoint x="370" y="220" as="targetPoint" />
          </mxGeometry>
        </mxCell>
        <mxCell id="pYMBZBInxaOQRp_aP_Sl-10" value="" style="endArrow=none;html=1;rounded=0;entryX=0.406;entryY=1.062;entryDx=0;entryDy=0;entryPerimeter=0;exitX=0.58;exitY=0.057;exitDx=0;exitDy=0;exitPerimeter=0;" edge="1" parent="1" target="pYMBZBInxaOQRp_aP_Sl-4">
          <mxGeometry width="50" height="50" relative="1" as="geometry">
            <mxPoint x="138" y="192.27999999999997" as="sourcePoint" />
            <mxPoint x="100" y="220" as="targetPoint" />
          </mxGeometry>
        </mxCell>
        <mxCell id="pYMBZBInxaOQRp_aP_Sl-11" value="" style="endArrow=none;html=1;rounded=0;entryX=0.734;entryY=1.046;entryDx=0;entryDy=0;entryPerimeter=0;" edge="1" parent="1" source="pYMBZBInxaOQRp_aP_Sl-1" target="pYMBZBInxaOQRp_aP_Sl-2">
          <mxGeometry width="50" height="50" relative="1" as="geometry">
            <mxPoint x="320" y="270" as="sourcePoint" />
            <mxPoint x="370" y="220" as="targetPoint" />
          </mxGeometry>
        </mxCell>
        <mxCell id="pYMBZBInxaOQRp_aP_Sl-12" value="" style="endArrow=none;html=1;rounded=0;entryX=0;entryY=0.5;entryDx=0;entryDy=0;exitX=1;exitY=0.75;exitDx=0;exitDy=0;" edge="1" parent="1" source="pYMBZBInxaOQRp_aP_Sl-1" target="pYMBZBInxaOQRp_aP_Sl-6">
          <mxGeometry width="50" height="50" relative="1" as="geometry">
            <mxPoint x="390" y="270" as="sourcePoint" />
            <mxPoint x="440" y="220" as="targetPoint" />
          </mxGeometry>
        </mxCell>
        <mxCell id="pYMBZBInxaOQRp_aP_Sl-13" value="" style="endArrow=none;html=1;rounded=0;entryX=0;entryY=0.5;entryDx=0;entryDy=0;exitX=1;exitY=1;exitDx=0;exitDy=0;" edge="1" parent="1" source="pYMBZBInxaOQRp_aP_Sl-1" target="pYMBZBInxaOQRp_aP_Sl-7">
          <mxGeometry width="50" height="50" relative="1" as="geometry">
            <mxPoint x="390" y="270" as="sourcePoint" />
            <mxPoint x="440" y="220" as="targetPoint" />
          </mxGeometry>
        </mxCell>
        <mxCell id="pYMBZBInxaOQRp_aP_Sl-14" value="cidade" style="ellipse;whiteSpace=wrap;html=1;align=center;" vertex="1" parent="1">
          <mxGeometry x="660" y="90" width="100" height="40" as="geometry" />
        </mxCell>
        <mxCell id="pYMBZBInxaOQRp_aP_Sl-15" value="codigo_postal" style="ellipse;whiteSpace=wrap;html=1;align=center;" vertex="1" parent="1">
          <mxGeometry x="660" y="140" width="100" height="40" as="geometry" />
        </mxCell>
        <mxCell id="pYMBZBInxaOQRp_aP_Sl-16" value="rua" style="ellipse;whiteSpace=wrap;html=1;align=center;" vertex="1" parent="1">
          <mxGeometry x="654" y="200" width="100" height="40" as="geometry" />
        </mxCell>
        <mxCell id="pYMBZBInxaOQRp_aP_Sl-17" value="numero" style="ellipse;whiteSpace=wrap;html=1;align=center;" vertex="1" parent="1">
          <mxGeometry x="630" y="240" width="100" height="40" as="geometry" />
        </mxCell>
        <mxCell id="pYMBZBInxaOQRp_aP_Sl-18" value="" style="endArrow=none;html=1;rounded=0;entryX=0.018;entryY=0.704;entryDx=0;entryDy=0;entryPerimeter=0;exitX=1;exitY=0;exitDx=0;exitDy=0;" edge="1" parent="1" source="pYMBZBInxaOQRp_aP_Sl-6" target="pYMBZBInxaOQRp_aP_Sl-14">
          <mxGeometry width="50" height="50" relative="1" as="geometry">
            <mxPoint x="650" y="130" as="sourcePoint" />
            <mxPoint x="640" y="120" as="targetPoint" />
          </mxGeometry>
        </mxCell>
        <mxCell id="pYMBZBInxaOQRp_aP_Sl-19" value="" style="endArrow=none;html=1;rounded=0;entryX=0.085;entryY=0.233;entryDx=0;entryDy=0;entryPerimeter=0;" edge="1" parent="1" target="pYMBZBInxaOQRp_aP_Sl-15">
          <mxGeometry width="50" height="50" relative="1" as="geometry">
            <mxPoint x="600" y="210" as="sourcePoint" />
            <mxPoint x="672" y="128" as="targetPoint" />
          </mxGeometry>
        </mxCell>
        <mxCell id="pYMBZBInxaOQRp_aP_Sl-20" value="" style="endArrow=none;html=1;rounded=0;entryX=0;entryY=0;entryDx=0;entryDy=0;exitX=1;exitY=0.5;exitDx=0;exitDy=0;" edge="1" parent="1" source="pYMBZBInxaOQRp_aP_Sl-6" target="pYMBZBInxaOQRp_aP_Sl-16">
          <mxGeometry width="50" height="50" relative="1" as="geometry">
            <mxPoint x="639.3553390593274" y="154.14213562373106" as="sourcePoint" />
            <mxPoint x="682" y="138" as="targetPoint" />
          </mxGeometry>
        </mxCell>
        <mxCell id="pYMBZBInxaOQRp_aP_Sl-21" value="" style="endArrow=none;html=1;rounded=0;exitX=0;exitY=0;exitDx=0;exitDy=0;" edge="1" parent="1" source="pYMBZBInxaOQRp_aP_Sl-17" target="pYMBZBInxaOQRp_aP_Sl-6">
          <mxGeometry width="50" height="50" relative="1" as="geometry">
            <mxPoint x="680" y="160" as="sourcePoint" />
            <mxPoint x="632.3000000000002" y="156.8800000000001" as="targetPoint" />
          </mxGeometry>
        </mxCell>
        <mxCell id="pYMBZBInxaOQRp_aP_Sl-22" value="contrato" style="whiteSpace=wrap;html=1;align=center;" vertex="1" parent="1">
          <mxGeometry x="40" y="190" width="100" height="40" as="geometry" />
        </mxCell>
        <mxCell id="pYMBZBInxaOQRp_aP_Sl-23" value="contrato_func" style="shape=rhombus;perimeter=rhombusPerimeter;whiteSpace=wrap;html=1;align=center;" vertex="1" parent="1">
          <mxGeometry x="180" y="180" width="120" height="60" as="geometry" />
        </mxCell>
        <mxCell id="pYMBZBInxaOQRp_aP_Sl-27" value="id" style="ellipse;whiteSpace=wrap;html=1;align=center;fontStyle=4;" vertex="1" parent="1">
          <mxGeometry x="80" y="60" width="100" height="40" as="geometry" />
        </mxCell>
        <mxCell id="pYMBZBInxaOQRp_aP_Sl-28" value="salario" style="ellipse;whiteSpace=wrap;html=1;align=center;" vertex="1" parent="1">
          <mxGeometry x="-20" y="110" width="100" height="40" as="geometry" />
        </mxCell>
        <mxCell id="pYMBZBInxaOQRp_aP_Sl-29" value="data_inic_contrato" style="ellipse;whiteSpace=wrap;html=1;align=center;" vertex="1" parent="1">
          <mxGeometry x="-90" y="170" width="100" height="40" as="geometry" />
        </mxCell>
        <mxCell id="pYMBZBInxaOQRp_aP_Sl-30" value="data_fim_contrato" style="ellipse;whiteSpace=wrap;html=1;align=center;" vertex="1" parent="1">
          <mxGeometry x="-80" y="240" width="100" height="40" as="geometry" />
        </mxCell>
        <mxCell id="pYMBZBInxaOQRp_aP_Sl-31" value="" style="endArrow=none;html=1;rounded=0;exitX=1;exitY=0.5;exitDx=0;exitDy=0;entryX=0.25;entryY=1;entryDx=0;entryDy=0;" edge="1" parent="1" source="pYMBZBInxaOQRp_aP_Sl-30" target="pYMBZBInxaOQRp_aP_Sl-22">
          <mxGeometry width="50" height="50" relative="1" as="geometry">
            <mxPoint x="40" y="190" as="sourcePoint" />
            <mxPoint x="90" y="140" as="targetPoint" />
          </mxGeometry>
        </mxCell>
        <mxCell id="pYMBZBInxaOQRp_aP_Sl-32" value="" style="endArrow=none;html=1;rounded=0;entryX=1;entryY=0.5;entryDx=0;entryDy=0;exitX=0;exitY=0.5;exitDx=0;exitDy=0;" edge="1" parent="1" source="pYMBZBInxaOQRp_aP_Sl-22" target="pYMBZBInxaOQRp_aP_Sl-29">
          <mxGeometry width="50" height="50" relative="1" as="geometry">
            <mxPoint x="40" y="190" as="sourcePoint" />
            <mxPoint x="90" y="140" as="targetPoint" />
          </mxGeometry>
        </mxCell>
        <mxCell id="pYMBZBInxaOQRp_aP_Sl-33" value="" style="endArrow=none;html=1;rounded=0;entryX=1;entryY=1;entryDx=0;entryDy=0;exitX=0.5;exitY=0;exitDx=0;exitDy=0;" edge="1" parent="1" source="pYMBZBInxaOQRp_aP_Sl-22" target="pYMBZBInxaOQRp_aP_Sl-28">
          <mxGeometry width="50" height="50" relative="1" as="geometry">
            <mxPoint x="40" y="190" as="sourcePoint" />
            <mxPoint x="90" y="140" as="targetPoint" />
          </mxGeometry>
        </mxCell>
        <mxCell id="pYMBZBInxaOQRp_aP_Sl-34" value="" style="endArrow=none;html=1;rounded=0;entryX=0.5;entryY=1;entryDx=0;entryDy=0;exitX=0.75;exitY=0;exitDx=0;exitDy=0;" edge="1" parent="1" source="pYMBZBInxaOQRp_aP_Sl-22" target="pYMBZBInxaOQRp_aP_Sl-27">
          <mxGeometry width="50" height="50" relative="1" as="geometry">
            <mxPoint x="40" y="190" as="sourcePoint" />
            <mxPoint x="90" y="140" as="targetPoint" />
          </mxGeometry>
        </mxCell>
        <mxCell id="cx5ySKviC3P1cnNgyjA7-1" value="ISA" style="triangle;whiteSpace=wrap;html=1;direction=south;" vertex="1" parent="1">
          <mxGeometry x="360" y="320" width="80" height="60" as="geometry" />
        </mxCell>
        <mxCell id="cx5ySKviC3P1cnNgyjA7-3" value="cliente" style="whiteSpace=wrap;html=1;align=center;" vertex="1" parent="1">
          <mxGeometry x="-20" y="380" width="100" height="40" as="geometry" />
        </mxCell>
        <mxCell id="cx5ySKviC3P1cnNgyjA7-4" value="" style="endArrow=none;html=1;rounded=0;entryX=0.717;entryY=0.675;entryDx=0;entryDy=0;entryPerimeter=0;exitX=1;exitY=0;exitDx=0;exitDy=0;" edge="1" parent="1" source="cx5ySKviC3P1cnNgyjA7-3" target="cx5ySKviC3P1cnNgyjA7-1">
          <mxGeometry width="50" height="50" relative="1" as="geometry">
            <mxPoint x="420" y="560" as="sourcePoint" />
            <mxPoint x="470" y="510" as="targetPoint" />
          </mxGeometry>
        </mxCell>
        <mxCell id="cx5ySKviC3P1cnNgyjA7-5" value="programadores" style="whiteSpace=wrap;html=1;align=center;" vertex="1" parent="1">
          <mxGeometry x="180" y="390" width="100" height="40" as="geometry" />
        </mxCell>
        <mxCell id="cx5ySKviC3P1cnNgyjA7-6" value="" style="endArrow=none;html=1;rounded=0;entryX=1;entryY=0.5;entryDx=0;entryDy=0;exitX=1;exitY=0;exitDx=0;exitDy=0;" edge="1" parent="1" source="cx5ySKviC3P1cnNgyjA7-5" target="cx5ySKviC3P1cnNgyjA7-1">
          <mxGeometry width="50" height="50" relative="1" as="geometry">
            <mxPoint x="420" y="560" as="sourcePoint" />
            <mxPoint x="470" y="510" as="targetPoint" />
          </mxGeometry>
        </mxCell>
        <mxCell id="cx5ySKviC3P1cnNgyjA7-7" value="ling_prog" style="shape=rhombus;perimeter=rhombusPerimeter;whiteSpace=wrap;html=1;align=center;" vertex="1" parent="1">
          <mxGeometry x="280" y="490" width="120" height="60" as="geometry" />
        </mxCell>
        <mxCell id="cx5ySKviC3P1cnNgyjA7-8" value="linguagem" style="whiteSpace=wrap;html=1;align=center;" vertex="1" parent="1">
          <mxGeometry x="314" y="605" width="100" height="40" as="geometry" />
        </mxCell>
        <mxCell id="cx5ySKviC3P1cnNgyjA7-9" value="" style="shape=link;html=1;rounded=0;entryX=0.5;entryY=1;entryDx=0;entryDy=0;exitX=0;exitY=0;exitDx=0;exitDy=0;" edge="1" parent="1" source="cx5ySKviC3P1cnNgyjA7-7" target="cx5ySKviC3P1cnNgyjA7-5">
          <mxGeometry width="100" relative="1" as="geometry">
            <mxPoint x="340" y="710" as="sourcePoint" />
            <mxPoint x="440" y="710" as="targetPoint" />
          </mxGeometry>
        </mxCell>
        <mxCell id="cx5ySKviC3P1cnNgyjA7-10" value="" style="endArrow=none;html=1;rounded=0;entryX=0;entryY=1;entryDx=0;entryDy=0;exitX=0.75;exitY=0;exitDx=0;exitDy=0;" edge="1" parent="1" source="cx5ySKviC3P1cnNgyjA7-8" target="cx5ySKviC3P1cnNgyjA7-7">
          <mxGeometry width="50" height="50" relative="1" as="geometry">
            <mxPoint x="370" y="740" as="sourcePoint" />
            <mxPoint x="420" y="690" as="targetPoint" />
          </mxGeometry>
        </mxCell>
        <mxCell id="cx5ySKviC3P1cnNgyjA7-11" value="nome_linguagem" style="ellipse;whiteSpace=wrap;html=1;align=center;" vertex="1" parent="1">
          <mxGeometry x="200" y="565" width="100" height="40" as="geometry" />
        </mxCell>
        <mxCell id="cx5ySKviC3P1cnNgyjA7-12" value="" style="endArrow=none;html=1;rounded=0;entryX=0.92;entryY=0.8;entryDx=0;entryDy=0;entryPerimeter=0;exitX=0.25;exitY=0;exitDx=0;exitDy=0;" edge="1" parent="1" source="cx5ySKviC3P1cnNgyjA7-8" target="cx5ySKviC3P1cnNgyjA7-11">
          <mxGeometry width="50" height="50" relative="1" as="geometry">
            <mxPoint x="370" y="660" as="sourcePoint" />
            <mxPoint x="420" y="610" as="targetPoint" />
          </mxGeometry>
        </mxCell>
        <mxCell id="cx5ySKviC3P1cnNgyjA7-13" value="tipo_linguagem" style="ellipse;whiteSpace=wrap;html=1;align=center;" vertex="1" parent="1">
          <mxGeometry x="150" y="605" width="100" height="40" as="geometry" />
        </mxCell>
        <mxCell id="cx5ySKviC3P1cnNgyjA7-14" value="" style="endArrow=none;html=1;rounded=0;entryX=1;entryY=1;entryDx=0;entryDy=0;exitX=0;exitY=0.75;exitDx=0;exitDy=0;" edge="1" parent="1" source="cx5ySKviC3P1cnNgyjA7-8" target="cx5ySKviC3P1cnNgyjA7-13">
          <mxGeometry width="50" height="50" relative="1" as="geometry">
            <mxPoint x="370" y="660" as="sourcePoint" />
            <mxPoint x="420" y="610" as="targetPoint" />
          </mxGeometry>
        </mxCell>
        <mxCell id="cx5ySKviC3P1cnNgyjA7-15" value="id" style="ellipse;whiteSpace=wrap;html=1;align=center;fontStyle=4;" vertex="1" parent="1">
          <mxGeometry x="150" y="650" width="100" height="40" as="geometry" />
        </mxCell>
        <mxCell id="cx5ySKviC3P1cnNgyjA7-16" value="" style="endArrow=none;html=1;rounded=0;entryX=0.25;entryY=1;entryDx=0;entryDy=0;exitX=1;exitY=0;exitDx=0;exitDy=0;" edge="1" parent="1" source="cx5ySKviC3P1cnNgyjA7-15" target="cx5ySKviC3P1cnNgyjA7-8">
          <mxGeometry width="50" height="50" relative="1" as="geometry">
            <mxPoint x="370" y="660" as="sourcePoint" />
            <mxPoint x="420" y="610" as="targetPoint" />
          </mxGeometry>
        </mxCell>
        <mxCell id="cx5ySKviC3P1cnNgyjA7-19" value="testers" style="whiteSpace=wrap;html=1;align=center;" vertex="1" parent="1">
          <mxGeometry x="440" y="420" width="100" height="40" as="geometry" />
        </mxCell>
        <mxCell id="cx5ySKviC3P1cnNgyjA7-20" value="" style="endArrow=none;html=1;rounded=0;entryX=0.75;entryY=0.363;entryDx=0;entryDy=0;entryPerimeter=0;exitX=0;exitY=0;exitDx=0;exitDy=0;" edge="1" parent="1" source="cx5ySKviC3P1cnNgyjA7-19" target="cx5ySKviC3P1cnNgyjA7-1">
          <mxGeometry width="50" height="50" relative="1" as="geometry">
            <mxPoint x="630" y="470" as="sourcePoint" />
            <mxPoint x="680" y="420" as="targetPoint" />
          </mxGeometry>
        </mxCell>
        <mxCell id="cx5ySKviC3P1cnNgyjA7-22" value="testers_testes" style="shape=rhombus;perimeter=rhombusPerimeter;whiteSpace=wrap;html=1;align=center;" vertex="1" parent="1">
          <mxGeometry x="530" y="505" width="120" height="60" as="geometry" />
        </mxCell>
        <mxCell id="cx5ySKviC3P1cnNgyjA7-23" value="testes" style="whiteSpace=wrap;html=1;align=center;" vertex="1" parent="1">
          <mxGeometry x="690" y="700" width="100" height="40" as="geometry" />
        </mxCell>
        <mxCell id="cx5ySKviC3P1cnNgyjA7-24" value="data" style="ellipse;whiteSpace=wrap;html=1;align=center;" vertex="1" parent="1">
          <mxGeometry x="530" y="750" width="100" height="40" as="geometry" />
        </mxCell>
        <mxCell id="cx5ySKviC3P1cnNgyjA7-26" value="n_erros" style="ellipse;whiteSpace=wrap;html=1;align=center;" vertex="1" parent="1">
          <mxGeometry x="880" y="790" width="100" height="40" as="geometry" />
        </mxCell>
        <mxCell id="cx5ySKviC3P1cnNgyjA7-27" value="id" style="ellipse;whiteSpace=wrap;html=1;align=center;fontStyle=4;" vertex="1" parent="1">
          <mxGeometry x="870" y="690" width="100" height="40" as="geometry" />
        </mxCell>
        <mxCell id="cx5ySKviC3P1cnNgyjA7-28" value="" style="endArrow=none;html=1;rounded=0;entryX=0;entryY=0.75;entryDx=0;entryDy=0;exitX=0.63;exitY=-0.025;exitDx=0;exitDy=0;exitPerimeter=0;" edge="1" parent="1" source="cx5ySKviC3P1cnNgyjA7-24" target="cx5ySKviC3P1cnNgyjA7-23">
          <mxGeometry width="50" height="50" relative="1" as="geometry">
            <mxPoint x="830" y="610" as="sourcePoint" />
            <mxPoint x="880" y="560" as="targetPoint" />
          </mxGeometry>
        </mxCell>
        <mxCell id="cx5ySKviC3P1cnNgyjA7-29" value="" style="endArrow=none;html=1;rounded=0;entryX=0.39;entryY=1.05;entryDx=0;entryDy=0;exitX=0;exitY=0;exitDx=0;exitDy=0;entryPerimeter=0;" edge="1" parent="1" source="cx5ySKviC3P1cnNgyjA7-26" target="cx5ySKviC3P1cnNgyjA7-23">
          <mxGeometry width="50" height="50" relative="1" as="geometry">
            <mxPoint x="603" y="679" as="sourcePoint" />
            <mxPoint x="650" y="660" as="targetPoint" />
          </mxGeometry>
        </mxCell>
        <mxCell id="cx5ySKviC3P1cnNgyjA7-30" value="" style="endArrow=none;html=1;rounded=0;entryX=0.87;entryY=1;entryDx=0;entryDy=0;exitX=0;exitY=0;exitDx=0;exitDy=0;entryPerimeter=0;" edge="1" parent="1" source="cx5ySKviC3P1cnNgyjA7-27" target="cx5ySKviC3P1cnNgyjA7-23">
          <mxGeometry width="50" height="50" relative="1" as="geometry">
            <mxPoint x="613" y="689" as="sourcePoint" />
            <mxPoint x="660" y="670" as="targetPoint" />
          </mxGeometry>
        </mxCell>
        <mxCell id="cx5ySKviC3P1cnNgyjA7-37" value="linguagem_test" style="shape=rhombus;perimeter=rhombusPerimeter;whiteSpace=wrap;html=1;align=center;" vertex="1" parent="1">
          <mxGeometry x="480" y="650" width="120" height="60" as="geometry" />
        </mxCell>
        <mxCell id="cx5ySKviC3P1cnNgyjA7-40" value="sist_operativo" style="whiteSpace=wrap;html=1;align=center;" vertex="1" parent="1">
          <mxGeometry x="600" y="910" width="100" height="40" as="geometry" />
        </mxCell>
        <mxCell id="cx5ySKviC3P1cnNgyjA7-41" value="req_minimos" style="ellipse;whiteSpace=wrap;html=1;align=center;" vertex="1" parent="1">
          <mxGeometry x="720" y="960" width="100" height="40" as="geometry" />
        </mxCell>
        <mxCell id="cx5ySKviC3P1cnNgyjA7-42" value="data_lancamento" style="ellipse;whiteSpace=wrap;html=1;align=center;" vertex="1" parent="1">
          <mxGeometry x="700" y="1010" width="100" height="40" as="geometry" />
        </mxCell>
        <mxCell id="cx5ySKviC3P1cnNgyjA7-43" value="versao" style="ellipse;whiteSpace=wrap;html=1;align=center;" vertex="1" parent="1">
          <mxGeometry x="580" y="1010" width="100" height="40" as="geometry" />
        </mxCell>
        <mxCell id="cx5ySKviC3P1cnNgyjA7-44" value="id" style="ellipse;whiteSpace=wrap;html=1;align=center;fontStyle=4;" vertex="1" parent="1">
          <mxGeometry x="500" y="980" width="100" height="40" as="geometry" />
        </mxCell>
        <mxCell id="cx5ySKviC3P1cnNgyjA7-45" value="" style="endArrow=none;html=1;rounded=0;entryX=0.5;entryY=0;entryDx=0;entryDy=0;exitX=1;exitY=0.25;exitDx=0;exitDy=0;" edge="1" parent="1" source="cx5ySKviC3P1cnNgyjA7-40" target="cx5ySKviC3P1cnNgyjA7-41">
          <mxGeometry width="50" height="50" relative="1" as="geometry">
            <mxPoint x="700" y="760" as="sourcePoint" />
            <mxPoint x="750" y="710" as="targetPoint" />
          </mxGeometry>
        </mxCell>
        <mxCell id="cx5ySKviC3P1cnNgyjA7-46" value="" style="endArrow=none;html=1;rounded=0;entryX=0;entryY=0;entryDx=0;entryDy=0;exitX=1;exitY=1;exitDx=0;exitDy=0;" edge="1" parent="1" source="cx5ySKviC3P1cnNgyjA7-40" target="cx5ySKviC3P1cnNgyjA7-42">
          <mxGeometry width="50" height="50" relative="1" as="geometry">
            <mxPoint x="710" y="930" as="sourcePoint" />
            <mxPoint x="780" y="970" as="targetPoint" />
          </mxGeometry>
        </mxCell>
        <mxCell id="cx5ySKviC3P1cnNgyjA7-47" value="" style="endArrow=none;html=1;rounded=0;exitX=0.6;exitY=1.025;exitDx=0;exitDy=0;exitPerimeter=0;" edge="1" parent="1" source="cx5ySKviC3P1cnNgyjA7-40" target="cx5ySKviC3P1cnNgyjA7-43">
          <mxGeometry width="50" height="50" relative="1" as="geometry">
            <mxPoint x="720" y="940" as="sourcePoint" />
            <mxPoint x="790" y="980" as="targetPoint" />
          </mxGeometry>
        </mxCell>
        <mxCell id="cx5ySKviC3P1cnNgyjA7-48" value="" style="endArrow=none;html=1;rounded=0;entryX=0.92;entryY=0.225;entryDx=0;entryDy=0;exitX=0.11;exitY=1.025;exitDx=0;exitDy=0;exitPerimeter=0;entryPerimeter=0;" edge="1" parent="1" source="cx5ySKviC3P1cnNgyjA7-40" target="cx5ySKviC3P1cnNgyjA7-44">
          <mxGeometry width="50" height="50" relative="1" as="geometry">
            <mxPoint x="730" y="950" as="sourcePoint" />
            <mxPoint x="800" y="990" as="targetPoint" />
          </mxGeometry>
        </mxCell>
        <mxCell id="cx5ySKviC3P1cnNgyjA7-50" value="so_teste" style="shape=rhombus;perimeter=rhombusPerimeter;whiteSpace=wrap;html=1;align=center;" vertex="1" parent="1">
          <mxGeometry x="634" y="800" width="120" height="60" as="geometry" />
        </mxCell>
        <mxCell id="cx5ySKviC3P1cnNgyjA7-53" value="designer" style="whiteSpace=wrap;html=1;align=center;" vertex="1" parent="1">
          <mxGeometry x="760" y="380" width="100" height="40" as="geometry" />
        </mxCell>
        <mxCell id="cx5ySKviC3P1cnNgyjA7-54" value="" style="endArrow=none;html=1;rounded=0;entryX=0;entryY=0.25;entryDx=0;entryDy=0;exitX=0.5;exitY=0;exitDx=0;exitDy=0;" edge="1" parent="1" source="cx5ySKviC3P1cnNgyjA7-1" target="cx5ySKviC3P1cnNgyjA7-53">
          <mxGeometry width="50" height="50" relative="1" as="geometry">
            <mxPoint x="560" y="470" as="sourcePoint" />
            <mxPoint x="610" y="420" as="targetPoint" />
          </mxGeometry>
        </mxCell>
        <mxCell id="cx5ySKviC3P1cnNgyjA7-55" value="estilo_art" style="whiteSpace=wrap;html=1;align=center;" vertex="1" parent="1">
          <mxGeometry x="1020" y="320" width="80" height="40" as="geometry" />
        </mxCell>
        <mxCell id="cx5ySKviC3P1cnNgyjA7-56" value="id" style="ellipse;whiteSpace=wrap;html=1;align=center;fontStyle=4;" vertex="1" parent="1">
          <mxGeometry x="1040" y="230" width="100" height="40" as="geometry" />
        </mxCell>
        <mxCell id="cx5ySKviC3P1cnNgyjA7-57" value="nome" style="ellipse;whiteSpace=wrap;html=1;align=center;" vertex="1" parent="1">
          <mxGeometry x="1150" y="260" width="100" height="40" as="geometry" />
        </mxCell>
        <mxCell id="cx5ySKviC3P1cnNgyjA7-58" value="utilidade" style="ellipse;whiteSpace=wrap;html=1;align=center;" vertex="1" parent="1">
          <mxGeometry x="1180" y="330" width="100" height="40" as="geometry" />
        </mxCell>
        <mxCell id="cx5ySKviC3P1cnNgyjA7-59" value="" style="endArrow=none;html=1;rounded=0;entryX=0.5;entryY=1;entryDx=0;entryDy=0;exitX=0.5;exitY=0;exitDx=0;exitDy=0;" edge="1" parent="1" source="cx5ySKviC3P1cnNgyjA7-55" target="cx5ySKviC3P1cnNgyjA7-56">
          <mxGeometry width="50" height="50" relative="1" as="geometry">
            <mxPoint x="860" y="470" as="sourcePoint" />
            <mxPoint x="910" y="420" as="targetPoint" />
          </mxGeometry>
        </mxCell>
        <mxCell id="cx5ySKviC3P1cnNgyjA7-60" value="" style="endArrow=none;html=1;rounded=0;entryX=0.22;entryY=0.95;entryDx=0;entryDy=0;exitX=0.75;exitY=0;exitDx=0;exitDy=0;entryPerimeter=0;" edge="1" parent="1" source="cx5ySKviC3P1cnNgyjA7-55" target="cx5ySKviC3P1cnNgyjA7-57">
          <mxGeometry width="50" height="50" relative="1" as="geometry">
            <mxPoint x="1100" y="330" as="sourcePoint" />
            <mxPoint x="1100" y="280" as="targetPoint" />
          </mxGeometry>
        </mxCell>
        <mxCell id="cx5ySKviC3P1cnNgyjA7-61" value="" style="endArrow=none;html=1;rounded=0;entryX=0;entryY=0.5;entryDx=0;entryDy=0;exitX=1;exitY=0.5;exitDx=0;exitDy=0;" edge="1" parent="1" source="cx5ySKviC3P1cnNgyjA7-55" target="cx5ySKviC3P1cnNgyjA7-58">
          <mxGeometry width="50" height="50" relative="1" as="geometry">
            <mxPoint x="1110" y="340" as="sourcePoint" />
            <mxPoint x="1110" y="290" as="targetPoint" />
          </mxGeometry>
        </mxCell>
        <mxCell id="cx5ySKviC3P1cnNgyjA7-64" value="designer_estilo" style="shape=rhombus;perimeter=rhombusPerimeter;whiteSpace=wrap;html=1;align=center;" vertex="1" parent="1">
          <mxGeometry x="890" y="350" width="120" height="60" as="geometry" />
        </mxCell>
        <mxCell id="cx5ySKviC3P1cnNgyjA7-65" value="" style="endArrow=none;html=1;rounded=0;entryX=0;entryY=1;entryDx=0;entryDy=0;exitX=1;exitY=0;exitDx=0;exitDy=0;" edge="1" parent="1" source="cx5ySKviC3P1cnNgyjA7-64" target="cx5ySKviC3P1cnNgyjA7-55">
          <mxGeometry width="50" height="50" relative="1" as="geometry">
            <mxPoint x="860" y="470" as="sourcePoint" />
            <mxPoint x="910" y="420" as="targetPoint" />
          </mxGeometry>
        </mxCell>
        <mxCell id="cx5ySKviC3P1cnNgyjA7-67" value="" style="shape=link;html=1;rounded=0;entryX=0.1;entryY=0.617;entryDx=0;entryDy=0;entryPerimeter=0;exitX=1;exitY=0.75;exitDx=0;exitDy=0;" edge="1" parent="1" source="cx5ySKviC3P1cnNgyjA7-53" target="cx5ySKviC3P1cnNgyjA7-64">
          <mxGeometry width="100" relative="1" as="geometry">
            <mxPoint x="750" y="430" as="sourcePoint" />
            <mxPoint x="850" y="430" as="targetPoint" />
          </mxGeometry>
        </mxCell>
        <mxCell id="cx5ySKviC3P1cnNgyjA7-68" value="gestor_projetos" style="whiteSpace=wrap;html=1;align=center;" vertex="1" parent="1">
          <mxGeometry x="1141" y="620" width="100" height="40" as="geometry" />
        </mxCell>
        <mxCell id="cx5ySKviC3P1cnNgyjA7-69" value="" style="endArrow=none;html=1;rounded=0;entryX=0;entryY=0.25;entryDx=0;entryDy=0;exitX=0.647;exitY=0.338;exitDx=0;exitDy=0;exitPerimeter=0;" edge="1" parent="1" source="cx5ySKviC3P1cnNgyjA7-1" target="cx5ySKviC3P1cnNgyjA7-68">
          <mxGeometry width="50" height="50" relative="1" as="geometry">
            <mxPoint x="840" y="530" as="sourcePoint" />
            <mxPoint x="890" y="480" as="targetPoint" />
          </mxGeometry>
        </mxCell>
        <mxCell id="cx5ySKviC3P1cnNgyjA7-71" value="R1:Apenas sÃ£o aceites funcionarios altamente qualificados como gestores de projeto" style="text;html=1;strokeColor=none;fillColor=none;align=center;verticalAlign=middle;whiteSpace=wrap;rounded=0;fontColor=#FF7559;rotation=15;" vertex="1" parent="1">
          <mxGeometry x="810" y="480" width="240" height="40" as="geometry" />
        </mxCell>
        <mxCell id="cx5ySKviC3P1cnNgyjA7-72" value="projeto" style="whiteSpace=wrap;html=1;align=center;" vertex="1" parent="1">
          <mxGeometry x="490" y="1270" width="100" height="40" as="geometry" />
        </mxCell>
        <mxCell id="cx5ySKviC3P1cnNgyjA7-73" value="data_entrega" style="ellipse;whiteSpace=wrap;html=1;align=center;dashed=1;" vertex="1" parent="1">
          <mxGeometry x="480" y="1470" width="100" height="40" as="geometry" />
        </mxCell>
        <mxCell id="cx5ySKviC3P1cnNgyjA7-76" value="data_inicio" style="ellipse;whiteSpace=wrap;html=1;align=center;" vertex="1" parent="1">
          <mxGeometry x="314" y="1460" width="100" height="30" as="geometry" />
        </mxCell>
        <mxCell id="cx5ySKviC3P1cnNgyjA7-77" value="descricao" style="ellipse;whiteSpace=wrap;html=1;align=center;" vertex="1" parent="1">
          <mxGeometry x="570" y="1380" width="100" height="30" as="geometry" />
        </mxCell>
        <mxCell id="cx5ySKviC3P1cnNgyjA7-78" value="complexidade" style="ellipse;whiteSpace=wrap;html=1;align=center;" vertex="1" parent="1">
          <mxGeometry x="654" y="1340" width="100" height="30" as="geometry" />
        </mxCell>
        <mxCell id="cx5ySKviC3P1cnNgyjA7-80" value="id" style="ellipse;whiteSpace=wrap;html=1;align=center;fontStyle=4;" vertex="1" parent="1">
          <mxGeometry x="174" y="1430" width="100" height="40" as="geometry" />
        </mxCell>
        <mxCell id="cx5ySKviC3P1cnNgyjA7-81" value="progr_proj" style="shape=rhombus;perimeter=rhombusPerimeter;whiteSpace=wrap;html=1;align=center;" vertex="1" parent="1">
          <mxGeometry x="-10" y="690" width="120" height="60" as="geometry" />
        </mxCell>
        <mxCell id="cx5ySKviC3P1cnNgyjA7-82" value="cliente_proj" style="shape=rhombus;perimeter=rhombusPerimeter;whiteSpace=wrap;html=1;align=center;" vertex="1" parent="1">
          <mxGeometry x="-140" y="670" width="120" height="60" as="geometry" />
        </mxCell>
        <mxCell id="cx5ySKviC3P1cnNgyjA7-83" value="tester_proj" style="shape=rhombus;perimeter=rhombusPerimeter;whiteSpace=wrap;html=1;align=center;" vertex="1" parent="1">
          <mxGeometry x="1121" y="710" width="120" height="60" as="geometry" />
        </mxCell>
        <mxCell id="cx5ySKviC3P1cnNgyjA7-84" value="gestor_proj" style="shape=rhombus;perimeter=rhombusPerimeter;whiteSpace=wrap;html=1;align=center;" vertex="1" parent="1">
          <mxGeometry x="1390" y="730" width="120" height="60" as="geometry" />
        </mxCell>
        <mxCell id="cx5ySKviC3P1cnNgyjA7-85" value="linguagem_proj" style="shape=rhombus;perimeter=rhombusPerimeter;whiteSpace=wrap;html=1;align=center;" vertex="1" parent="1">
          <mxGeometry x="210" y="830" width="120" height="60" as="geometry" />
        </mxCell>
        <mxCell id="cx5ySKviC3P1cnNgyjA7-86" value="so_proj" style="shape=rhombus;perimeter=rhombusPerimeter;whiteSpace=wrap;html=1;align=center;" vertex="1" parent="1">
          <mxGeometry x="410" y="890" width="120" height="60" as="geometry" />
        </mxCell>
        <mxCell id="cx5ySKviC3P1cnNgyjA7-87" value="" style="endArrow=none;html=1;rounded=0;entryX=0;entryY=0.5;entryDx=0;entryDy=0;exitX=1;exitY=0.5;exitDx=0;exitDy=0;" edge="1" parent="1" source="cx5ySKviC3P1cnNgyjA7-80" target="cx5ySKviC3P1cnNgyjA7-72">
          <mxGeometry width="50" height="50" relative="1" as="geometry">
            <mxPoint x="370" y="1240" as="sourcePoint" />
            <mxPoint x="420" y="1190" as="targetPoint" />
          </mxGeometry>
        </mxCell>
        <mxCell id="cx5ySKviC3P1cnNgyjA7-88" value="" style="endArrow=none;html=1;rounded=0;entryX=0;entryY=1;entryDx=0;entryDy=0;exitX=1;exitY=0;exitDx=0;exitDy=0;" edge="1" parent="1" source="cx5ySKviC3P1cnNgyjA7-76" target="cx5ySKviC3P1cnNgyjA7-72">
          <mxGeometry width="50" height="50" relative="1" as="geometry">
            <mxPoint x="360" y="1310" as="sourcePoint" />
            <mxPoint x="500" y="1300" as="targetPoint" />
          </mxGeometry>
        </mxCell>
        <mxCell id="cx5ySKviC3P1cnNgyjA7-89" value="" style="endArrow=none;html=1;rounded=0;entryX=0.42;entryY=1.025;entryDx=0;entryDy=0;exitX=0.69;exitY=0;exitDx=0;exitDy=0;entryPerimeter=0;exitPerimeter=0;" edge="1" parent="1" source="cx5ySKviC3P1cnNgyjA7-73" target="cx5ySKviC3P1cnNgyjA7-72">
          <mxGeometry width="50" height="50" relative="1" as="geometry">
            <mxPoint x="370" y="1320" as="sourcePoint" />
            <mxPoint x="510" y="1310" as="targetPoint" />
          </mxGeometry>
        </mxCell>
        <mxCell id="cx5ySKviC3P1cnNgyjA7-90" value="" style="endArrow=none;html=1;rounded=0;entryX=0.75;entryY=1;entryDx=0;entryDy=0;exitX=0.3;exitY=0;exitDx=0;exitDy=0;exitPerimeter=0;" edge="1" parent="1" source="cx5ySKviC3P1cnNgyjA7-77" target="cx5ySKviC3P1cnNgyjA7-72">
          <mxGeometry width="50" height="50" relative="1" as="geometry">
            <mxPoint x="380" y="1330" as="sourcePoint" />
            <mxPoint x="520" y="1320" as="targetPoint" />
          </mxGeometry>
        </mxCell>
        <mxCell id="cx5ySKviC3P1cnNgyjA7-91" value="" style="endArrow=none;html=1;rounded=0;entryX=1;entryY=1;entryDx=0;entryDy=0;exitX=0.24;exitY=0.1;exitDx=0;exitDy=0;exitPerimeter=0;" edge="1" parent="1" source="cx5ySKviC3P1cnNgyjA7-78" target="cx5ySKviC3P1cnNgyjA7-72">
          <mxGeometry width="50" height="50" relative="1" as="geometry">
            <mxPoint x="390" y="1340" as="sourcePoint" />
            <mxPoint x="530" y="1330" as="targetPoint" />
          </mxGeometry>
        </mxCell>
        <mxCell id="cx5ySKviC3P1cnNgyjA7-96" value="R3: Apenas sao aceites projetos com programadores na linguagem desejada" style="text;html=1;strokeColor=none;fillColor=none;align=center;verticalAlign=middle;whiteSpace=wrap;rounded=0;fontColor=#FF7559;rotation=60;" vertex="1" parent="1">
          <mxGeometry x="284" y="990" width="220" height="30" as="geometry" />
        </mxCell>
        <mxCell id="cx5ySKviC3P1cnNgyjA7-105" value="2D, 3D, ..." style="text;html=1;strokeColor=none;fillColor=none;align=center;verticalAlign=middle;whiteSpace=wrap;rounded=0;fontColor=#BE3DFF;" vertex="1" parent="1">
          <mxGeometry x="1190" y="380" width="60" height="30" as="geometry" />
        </mxCell>
        <mxCell id="cx5ySKviC3P1cnNgyjA7-106" value="&lt;font color=&quot;#ff7559&quot;&gt;R2: Os programadores tem de ter pelo menos 5 anos de experiencia para trabalhar em um projeto de complexidade alta&lt;/font&gt;" style="text;html=1;strokeColor=none;fillColor=none;align=center;verticalAlign=middle;whiteSpace=wrap;rounded=0;rotation=-60;" vertex="1" parent="1">
          <mxGeometry x="-60" y="535" width="300" height="30" as="geometry" />
        </mxCell>
        <mxCell id="cx5ySKviC3P1cnNgyjA7-116" value="designer_proj" style="shape=rhombus;perimeter=rhombusPerimeter;whiteSpace=wrap;html=1;align=center;" vertex="1" parent="1">
          <mxGeometry x="1534" y="740" width="120" height="60" as="geometry" />
        </mxCell>
        <mxCell id="nSw8IJMJKadcHm2kyn1e-1" value="" style="shape=link;html=1;rounded=0;entryX=0.5;entryY=1;entryDx=0;entryDy=0;exitX=0;exitY=0.5;exitDx=0;exitDy=0;" edge="1" parent="1" source="cx5ySKviC3P1cnNgyjA7-1" target="pYMBZBInxaOQRp_aP_Sl-1">
          <mxGeometry width="100" relative="1" as="geometry">
            <mxPoint x="180" y="200" as="sourcePoint" />
            <mxPoint x="280" y="200" as="targetPoint" />
          </mxGeometry>
        </mxCell>
        <mxCell id="nSw8IJMJKadcHm2kyn1e-2" value="" style="endArrow=none;html=1;rounded=0;exitX=1;exitY=1;exitDx=0;exitDy=0;entryX=0;entryY=0;entryDx=0;entryDy=0;" edge="1" parent="1" source="cx5ySKviC3P1cnNgyjA7-53" target="cx5ySKviC3P1cnNgyjA7-116">
          <mxGeometry width="50" height="50" relative="1" as="geometry">
            <mxPoint x="1090" y="760" as="sourcePoint" />
            <mxPoint x="1140" y="710" as="targetPoint" />
          </mxGeometry>
        </mxCell>
        <mxCell id="nSw8IJMJKadcHm2kyn1e-3" value="" style="shape=link;html=1;rounded=0;entryX=0;entryY=1;entryDx=0;entryDy=0;exitX=1;exitY=0.75;exitDx=0;exitDy=0;" edge="1" parent="1" source="cx5ySKviC3P1cnNgyjA7-72" target="cx5ySKviC3P1cnNgyjA7-116">
          <mxGeometry width="100" relative="1" as="geometry">
            <mxPoint x="990" y="1010" as="sourcePoint" />
            <mxPoint x="1090" y="1010" as="targetPoint" />
          </mxGeometry>
        </mxCell>
        <mxCell id="nSw8IJMJKadcHm2kyn1e-5" value="" style="endArrow=classic;html=1;rounded=0;entryX=1;entryY=1;entryDx=0;entryDy=0;exitX=0.158;exitY=0.34;exitDx=0;exitDy=0;exitPerimeter=0;" edge="1" parent="1" source="cx5ySKviC3P1cnNgyjA7-84" target="cx5ySKviC3P1cnNgyjA7-68">
          <mxGeometry width="50" height="50" relative="1" as="geometry">
            <mxPoint x="980" y="930" as="sourcePoint" />
            <mxPoint x="1030" y="880" as="targetPoint" />
          </mxGeometry>
        </mxCell>
        <mxCell id="nSw8IJMJKadcHm2kyn1e-7" value="" style="shape=link;html=1;rounded=0;entryX=0;entryY=1;entryDx=0;entryDy=0;exitX=1;exitY=0;exitDx=0;exitDy=0;" edge="1" parent="1" source="cx5ySKviC3P1cnNgyjA7-72" target="cx5ySKviC3P1cnNgyjA7-83">
          <mxGeometry width="100" relative="1" as="geometry">
            <mxPoint x="890" y="920" as="sourcePoint" />
            <mxPoint x="990" y="920" as="targetPoint" />
          </mxGeometry>
        </mxCell>
        <mxCell id="nSw8IJMJKadcHm2kyn1e-8" value="" style="endArrow=none;html=1;rounded=0;entryX=1;entryY=0.5;entryDx=0;entryDy=0;exitX=0;exitY=0;exitDx=0;exitDy=0;" edge="1" parent="1" source="cx5ySKviC3P1cnNgyjA7-83" target="cx5ySKviC3P1cnNgyjA7-19">
          <mxGeometry width="50" height="50" relative="1" as="geometry">
            <mxPoint x="950" y="800" as="sourcePoint" />
            <mxPoint x="1000" y="750" as="targetPoint" />
          </mxGeometry>
        </mxCell>
        <mxCell id="nSw8IJMJKadcHm2kyn1e-10" value="" style="shape=link;html=1;rounded=0;entryX=0.5;entryY=0;entryDx=0;entryDy=0;exitX=1;exitY=1;exitDx=0;exitDy=0;" edge="1" parent="1" source="cx5ySKviC3P1cnNgyjA7-22" target="cx5ySKviC3P1cnNgyjA7-23">
          <mxGeometry width="100" relative="1" as="geometry">
            <mxPoint x="550" y="610" as="sourcePoint" />
            <mxPoint x="650" y="610" as="targetPoint" />
          </mxGeometry>
        </mxCell>
        <mxCell id="nSw8IJMJKadcHm2kyn1e-11" value="" style="endArrow=classic;html=1;rounded=0;entryX=0.75;entryY=1;entryDx=0;entryDy=0;exitX=0;exitY=0;exitDx=0;exitDy=0;" edge="1" parent="1" source="cx5ySKviC3P1cnNgyjA7-22" target="cx5ySKviC3P1cnNgyjA7-19">
          <mxGeometry width="50" height="50" relative="1" as="geometry">
            <mxPoint x="580" y="640" as="sourcePoint" />
            <mxPoint x="630" y="590" as="targetPoint" />
          </mxGeometry>
        </mxCell>
        <mxCell id="nSw8IJMJKadcHm2kyn1e-12" value="" style="endArrow=none;html=1;rounded=0;entryX=0;entryY=1;entryDx=0;entryDy=0;exitX=0.5;exitY=0;exitDx=0;exitDy=0;" edge="1" parent="1" source="cx5ySKviC3P1cnNgyjA7-40" target="cx5ySKviC3P1cnNgyjA7-50">
          <mxGeometry width="50" height="50" relative="1" as="geometry">
            <mxPoint x="530" y="830" as="sourcePoint" />
            <mxPoint x="580" y="780" as="targetPoint" />
          </mxGeometry>
        </mxCell>
        <mxCell id="nSw8IJMJKadcHm2kyn1e-14" value="" style="shape=link;html=1;rounded=0;entryX=0.25;entryY=1;entryDx=0;entryDy=0;exitX=0.5;exitY=0;exitDx=0;exitDy=0;" edge="1" parent="1" source="cx5ySKviC3P1cnNgyjA7-50" target="cx5ySKviC3P1cnNgyjA7-23">
          <mxGeometry width="100" relative="1" as="geometry">
            <mxPoint x="520" y="740" as="sourcePoint" />
            <mxPoint x="620" y="740" as="targetPoint" />
          </mxGeometry>
        </mxCell>
        <mxCell id="nSw8IJMJKadcHm2kyn1e-15" value="" style="shape=link;html=1;rounded=0;entryX=0;entryY=0.5;entryDx=0;entryDy=0;exitX=0.883;exitY=0.629;exitDx=0;exitDy=0;exitPerimeter=0;" edge="1" parent="1" source="cx5ySKviC3P1cnNgyjA7-37" target="cx5ySKviC3P1cnNgyjA7-23">
          <mxGeometry width="100" relative="1" as="geometry">
            <mxPoint x="410" y="590" as="sourcePoint" />
            <mxPoint x="510" y="590" as="targetPoint" />
          </mxGeometry>
        </mxCell>
        <mxCell id="nSw8IJMJKadcHm2kyn1e-16" value="" style="endArrow=none;html=1;rounded=0;entryX=0.133;entryY=0.362;entryDx=0;entryDy=0;entryPerimeter=0;exitX=1;exitY=0.75;exitDx=0;exitDy=0;" edge="1" parent="1" source="cx5ySKviC3P1cnNgyjA7-8" target="cx5ySKviC3P1cnNgyjA7-37">
          <mxGeometry width="50" height="50" relative="1" as="geometry">
            <mxPoint x="440" y="610" as="sourcePoint" />
            <mxPoint x="490" y="560" as="targetPoint" />
          </mxGeometry>
        </mxCell>
        <mxCell id="nSw8IJMJKadcHm2kyn1e-17" value="" style="endArrow=none;html=1;rounded=0;entryX=0.75;entryY=1;entryDx=0;entryDy=0;exitX=0.567;exitY=0.092;exitDx=0;exitDy=0;exitPerimeter=0;" edge="1" parent="1" source="cx5ySKviC3P1cnNgyjA7-85" target="cx5ySKviC3P1cnNgyjA7-8">
          <mxGeometry width="50" height="50" relative="1" as="geometry">
            <mxPoint x="460" y="1020" as="sourcePoint" />
            <mxPoint x="510" y="970" as="targetPoint" />
          </mxGeometry>
        </mxCell>
        <mxCell id="nSw8IJMJKadcHm2kyn1e-19" value="" style="shape=link;html=1;rounded=0;entryX=0.38;entryY=0.025;entryDx=0;entryDy=0;entryPerimeter=0;exitX=0.617;exitY=0.867;exitDx=0;exitDy=0;exitPerimeter=0;" edge="1" parent="1" source="cx5ySKviC3P1cnNgyjA7-85" target="cx5ySKviC3P1cnNgyjA7-72">
          <mxGeometry width="100" relative="1" as="geometry">
            <mxPoint x="410" y="950" as="sourcePoint" />
            <mxPoint x="510" y="950" as="targetPoint" />
          </mxGeometry>
        </mxCell>
        <mxCell id="nSw8IJMJKadcHm2kyn1e-20" value="" style="shape=link;html=1;rounded=0;entryX=0.08;entryY=-0.025;entryDx=0;entryDy=0;entryPerimeter=0;" edge="1" parent="1" source="cx5ySKviC3P1cnNgyjA7-81" target="cx5ySKviC3P1cnNgyjA7-72">
          <mxGeometry width="100" relative="1" as="geometry">
            <mxPoint x="420" y="940" as="sourcePoint" />
            <mxPoint x="520" y="940" as="targetPoint" />
          </mxGeometry>
        </mxCell>
        <mxCell id="nSw8IJMJKadcHm2kyn1e-21" value="" style="endArrow=none;html=1;rounded=0;entryX=0.08;entryY=0.962;entryDx=0;entryDy=0;entryPerimeter=0;exitX=0.5;exitY=0;exitDx=0;exitDy=0;" edge="1" parent="1" source="cx5ySKviC3P1cnNgyjA7-81" target="cx5ySKviC3P1cnNgyjA7-5">
          <mxGeometry width="50" height="50" relative="1" as="geometry">
            <mxPoint x="380" y="650" as="sourcePoint" />
            <mxPoint x="430" y="600" as="targetPoint" />
          </mxGeometry>
        </mxCell>
        <mxCell id="nSw8IJMJKadcHm2kyn1e-23" value="" style="endArrow=classic;html=1;rounded=0;entryX=0.25;entryY=1;entryDx=0;entryDy=0;exitX=0.5;exitY=0;exitDx=0;exitDy=0;" edge="1" parent="1" source="cx5ySKviC3P1cnNgyjA7-82" target="cx5ySKviC3P1cnNgyjA7-3">
          <mxGeometry width="50" height="50" relative="1" as="geometry">
            <mxPoint x="240" y="700" as="sourcePoint" />
            <mxPoint x="290" y="650" as="targetPoint" />
          </mxGeometry>
        </mxCell>
        <mxCell id="nSw8IJMJKadcHm2kyn1e-24" value="" style="endArrow=none;html=1;rounded=0;entryX=0.36;entryY=1.044;entryDx=0;entryDy=0;entryPerimeter=0;exitX=0.558;exitY=0.112;exitDx=0;exitDy=0;exitPerimeter=0;" edge="1" parent="1" source="cx5ySKviC3P1cnNgyjA7-82" target="cx5ySKviC3P1cnNgyjA7-3">
          <mxGeometry width="50" height="50" relative="1" as="geometry">
            <mxPoint x="-70" y="670" as="sourcePoint" />
            <mxPoint x="290" y="650" as="targetPoint" />
          </mxGeometry>
        </mxCell>
        <mxCell id="nSw8IJMJKadcHm2kyn1e-26" value="" style="shape=link;html=1;rounded=0;entryX=0;entryY=0.5;entryDx=0;entryDy=0;exitX=1;exitY=0.5;exitDx=0;exitDy=0;" edge="1" parent="1" source="pYMBZBInxaOQRp_aP_Sl-22" target="pYMBZBInxaOQRp_aP_Sl-23">
          <mxGeometry width="100" relative="1" as="geometry">
            <mxPoint x="380" y="260" as="sourcePoint" />
            <mxPoint x="480" y="260" as="targetPoint" />
          </mxGeometry>
        </mxCell>
        <mxCell id="nSw8IJMJKadcHm2kyn1e-27" value="" style="endArrow=none;html=1;rounded=0;entryX=0;entryY=0.25;entryDx=0;entryDy=0;exitX=0.875;exitY=0.362;exitDx=0;exitDy=0;exitPerimeter=0;" edge="1" parent="1" source="pYMBZBInxaOQRp_aP_Sl-23" target="pYMBZBInxaOQRp_aP_Sl-1">
          <mxGeometry width="50" height="50" relative="1" as="geometry">
            <mxPoint x="400" y="290" as="sourcePoint" />
            <mxPoint x="450" y="240" as="targetPoint" />
          </mxGeometry>
        </mxCell>
        <mxCell id="nSw8IJMJKadcHm2kyn1e-28" value="" style="endArrow=classic;html=1;rounded=0;entryX=0;entryY=0.5;entryDx=0;entryDy=0;exitX=1;exitY=0.5;exitDx=0;exitDy=0;" edge="1" parent="1" source="pYMBZBInxaOQRp_aP_Sl-23" target="pYMBZBInxaOQRp_aP_Sl-1">
          <mxGeometry width="50" height="50" relative="1" as="geometry">
            <mxPoint x="400" y="290" as="sourcePoint" />
            <mxPoint x="450" y="240" as="targetPoint" />
          </mxGeometry>
        </mxCell>
        <mxCell id="-knmn3ziAdvqEIvuFBl1-1" value="" style="endArrow=none;html=1;rounded=0;entryX=0;entryY=0.5;entryDx=0;entryDy=0;exitX=1;exitY=0;exitDx=0;exitDy=0;" edge="1" parent="1" source="cx5ySKviC3P1cnNgyjA7-86" target="cx5ySKviC3P1cnNgyjA7-40">
          <mxGeometry width="50" height="50" relative="1" as="geometry">
            <mxPoint x="740" y="970" as="sourcePoint" />
            <mxPoint x="790" y="920" as="targetPoint" />
          </mxGeometry>
        </mxCell>
        <mxCell id="-knmn3ziAdvqEIvuFBl1-2" value="" style="shape=link;html=1;rounded=0;entryX=0.69;entryY=0.006;entryDx=0;entryDy=0;entryPerimeter=0;exitX=0.5;exitY=1;exitDx=0;exitDy=0;" edge="1" parent="1" source="cx5ySKviC3P1cnNgyjA7-86" target="cx5ySKviC3P1cnNgyjA7-72">
          <mxGeometry width="100" relative="1" as="geometry">
            <mxPoint x="710" y="950" as="sourcePoint" />
            <mxPoint x="570" y="1230" as="targetPoint" />
          </mxGeometry>
        </mxCell>
        <mxCell id="b_TSUXVUoXx8PBSuBrgX-1" value="" style="shape=link;html=1;rounded=0;entryX=0;entryY=1;entryDx=0;entryDy=0;exitX=1;exitY=0.5;exitDx=0;exitDy=0;" edge="1" parent="1" source="cx5ySKviC3P1cnNgyjA7-72" target="cx5ySKviC3P1cnNgyjA7-84">
          <mxGeometry width="100" relative="1" as="geometry">
            <mxPoint x="770" y="1010" as="sourcePoint" />
            <mxPoint x="870" y="1010" as="targetPoint" />
          </mxGeometry>
        </mxCell>
        <mxCell id="b_TSUXVUoXx8PBSuBrgX-2" value="" style="shape=link;html=1;rounded=0;exitX=0.65;exitY=0.863;exitDx=0;exitDy=0;exitPerimeter=0;entryX=0;entryY=0.25;entryDx=0;entryDy=0;" edge="1" parent="1" source="cx5ySKviC3P1cnNgyjA7-82" target="cx5ySKviC3P1cnNgyjA7-72">
          <mxGeometry width="100" relative="1" as="geometry">
            <mxPoint x="460" y="1020" as="sourcePoint" />
            <mxPoint x="560" y="1020" as="targetPoint" />
          </mxGeometry>
        </mxCell>
      </root>
    </mxGraphModel>
  </diagram>
</mxfile>
